<mxfile host="app.diagrams.net" modified="2024-05-22T08:17:09.493Z" agent="Mozilla/5.0 (X11; Linux x86_64) AppleWebKit/537.36 (KHTML, like Gecko) Chrome/124.0.0.0 Safari/537.36" version="24.4.4" etag="e4aTPidEZk-apmlVyuuo" type="github">
  <diagram name="第 1 页" id="0WAAAwh6AoAhhtGZxaiA">
    <mxGraphModel>
      <root>
        <mxCell id="0" />
        <mxCell id="1" parent="0" />
      </root>
    </mxGraphModel>
  </diagram>
</mxfile>
